# xmcd
#
# Track frame offsets:
#	150
#	24687
#	49551
#	68986
#	93511
#	113319
#	133311
#	149621
#	168462
#	188931
#	210669
#
# Disc length: 3110 seconds
#
# Revision: 0
# Processed by: cddbd v1.5.2PL0 Copyright (c) Steve Scherf et al.
# Submitted via: EasyCDDAExtractor 10.2.0.1
#
DISCID=a10c240b
DTITLE=Monique Brumby - Into The Blue
DYEAR=2005
DGENRE=Blues
TTITLE0=Satellite
TTITLE1=Daisy Chain
TTITLE2=Wild Seed
TTITLE3=Janie
TTITLE4=Procession
TTITLE5=Into The Blue
TTITLE6=Lucky Man
TTITLE7=Telegraph Exchange
TTITLE8=One Love
TTITLE9=Across This Land
TTITLE10=Melting
EXTD=
EXTT0=
EXTT1=
EXTT2=
EXTT3=
EXTT4=
EXTT5=
EXTT6=
EXTT7=
EXTT8=
EXTT9=
EXTT10=
PLAYORDER=
